<svg xmlns="http://www.w3.org/2000/svg" xmlns:xlink="http://www.w3.org/1999/xlink" width="1200" height="900" viewBox="0 0 317 238"><defs><symbol id="a"><path d="M5 17h13v2H5a3 3 0 0 1-3-3V4a3 3 0 0 1 3-3h13v14H5c-.6 0-1 .5-1 1s.5 1 1 1zm2-3.5v-11c0-.3-.2-.5-.5-.5s-.5.2-.5.5v11c0 .3.2.5.5.5s.5-.2.5-.5z"/></symbol></defs><rect width="100.1%" height="100%" x="-.2" fill="orange"/><g fill="#1a1a1a" transform="translate(-.8 28.7)"><text xml:space="preserve" x="158.6" y="130.6" font-family="'Segoe UI'" font-size="32" font-weight="600" style="line-height:100%" text-anchor="middle"><tspan>BOOKSHELF</tspan></text><use xlink:href="#a" transform="matrix(2.6 0 0 2.6 132.9 47)"/></g></svg>
